<?xml version="1.0" encoding="utf-8"?>
<!-- Generator: Adobe Illustrator 27.6.1, SVG Export Plug-In . SVG Version: 6.00 Build 0)  -->
<svg version="1.1" id="Ebene_1" xmlns="http://www.w3.org/2000/svg" xmlns:xlink="http://www.w3.org/1999/xlink" x="0px" y="0px"
	 viewBox="0 0 630 630" style="enable-background:new 0 0 630 630;" xml:space="preserve">
<style type="text/css">
	.st0{fill-rule:evenodd;clip-rule:evenodd;fill:#F1FF3F;}
	.st1{filter:url(#filter-4);}
	.st2{fill-rule:evenodd;clip-rule:evenodd;fill:#00B5C9;}
	.st3{fill-rule:evenodd;clip-rule:evenodd;fill:#001755;}
</style>
<filter  filterUnits="objectBoundingBox" height="116.9%" id="filter-4" width="136.5%" x="-9.1%" y="-6.3%">
	<feOffset  dx="20" dy="10" in="SourceAlpha" result="shadowOffsetOuter1"></feOffset>
	<feGaussianBlur  in="shadowOffsetOuter1" result="shadowBlurOuter1" stdDeviation="10"></feGaussianBlur>
	<feColorMatrix  in="shadowBlurOuter1" type="matrix" values="0 0 0 0 0   0 0 0 0 0   0 0 0 0 0  0 0 0 0.0530211976 0">
		</feColorMatrix>
</filter>
<g id="Group" transform="translate(77.500000, 0.000000)">
	<path id="Rectangle" class="st0" d="M282,0h167c14.4,0,26,11.6,26,26v578c0,14.4-11.6,26-26,26H282c-14.4,0-26-11.6-26-26V26
		C256,11.6,267.6,0,282,0z"/>
	<g id="Combined-Shape">
		<g class="st1">
			<path id="path-3_00000121271948654052725210000016123095615946038428_" class="st2" d="M346,604v26h-26H153
				c-14.4,0-26-11.6-26-26V183c0-14.4,11.6-26,26-26h167c14.4,0,26,11.6,26,26V604z"/>
		</g>
		<g>
			<path id="path-3_00000038404138994671627010000016787879296278170801_" class="st2" d="M346,604v26h-26H153
				c-14.4,0-26-11.6-26-26V183c0-14.4,11.6-26,26-26h167c14.4,0,26,11.6,26,26V604z"/>
		</g>
	</g>
	<path id="Combined-Shape_00000095319808292064378010000015800768965789539993_" class="st3" d="M219,604v26h-26H26
		c-14.4,0-26-11.6-26-26V341c0-14.4,11.6-26,26-26h167c14.4,0,26,11.6,26,26V604z"/>
</g>
</svg>
